<?xml version="1.0" standalone="no"?>
<!DOCTYPE svg PUBLIC "-//W3C//DTD SVG 20010904//EN"
 "http://www.w3.org/TR/2001/REC-SVG-20010904/DTD/svg10.dtd">
<svg version="1.0" xmlns="http://www.w3.org/2000/svg"
 width="476.000000pt" height="476.000000pt" viewBox="0 0 476.000000 476.000000"
 preserveAspectRatio="xMidYMid meet">
<metadata>
Created by potrace 1.14, written by Peter Selinger 2001-2017
</metadata>
<g transform="translate(0.000000,476.000000) scale(0.100000,-0.100000)"
fill="#000000" stroke="none">
<path d="M820 4540 c-4 -8 -11 -37 -14 -65 -4 -27 -9 -66 -11 -85 -3 -19 -16
-127 -30 -240 -14 -113 -28 -218 -30 -235 -2 -16 -7 -52 -10 -80 -4 -27 -9
-64 -11 -81 -3 -17 -6 -46 -8 -65 -4 -30 -11 -92 -21 -169 -2 -14 -6 -48 -9
-76 -3 -29 -8 -65 -10 -80 -3 -16 -8 -54 -11 -84 -3 -30 -8 -66 -10 -80 -2
-14 -7 -47 -10 -75 -5 -47 -10 -85 -20 -165 -3 -19 -7 -55 -10 -80 -3 -25 -7
-56 -9 -70 -2 -14 -6 -50 -10 -80 -12 -93 -16 -123 -25 -195 -10 -76 -8 -323
4 -367 8 -32 1 -35 -105 -43 -41 -3 -88 -7 -105 -9 -27 -4 -164 -16 -222 -20
-132 -9 295 -11 2253 -11 1256 0 2284 3 2284 7 0 5 -15 8 -32 9 -18 0 -46 2
-63 4 -16 2 -54 6 -84 9 -29 3 -56 8 -59 11 -3 2 -11 0 -17 -5 -19 -16 -23 6
-14 90 12 120 10 256 -7 380 -8 63 -17 133 -19 155 -6 58 -16 136 -20 154 -1
9 -6 45 -10 81 -4 36 -9 73 -10 82 -2 9 -6 41 -10 70 -3 29 -7 69 -10 88 -2
19 -7 58 -10 85 -4 28 -8 61 -10 75 -2 14 -7 50 -10 80 -3 30 -8 66 -10 80 -2
14 -7 50 -10 80 -3 30 -8 66 -10 80 -2 14 -7 50 -10 80 -3 30 -8 66 -10 80 -2
14 -7 48 -10 75 -8 70 -16 136 -20 165 -2 14 -7 52 -11 85 -3 33 -8 67 -9 75
-2 8 -6 47 -11 85 -4 39 -8 72 -9 75 -1 3 -5 33 -9 67 l-8 63 -1660 2 c-1467
3 -1661 1 -1668 -12z m3265 -72 c2 -2 6 -32 9 -68 4 -36 8 -76 11 -90 7 -39
13 -89 20 -155 3 -33 10 -85 15 -115 5 -30 12 -80 15 -110 3 -30 7 -71 10 -90
3 -19 7 -53 9 -75 3 -22 7 -53 10 -70 3 -16 7 -55 11 -85 3 -30 7 -66 9 -80 3
-14 7 -50 10 -80 4 -30 8 -66 10 -80 2 -14 7 -51 11 -84 4 -32 8 -68 10 -80 2
-11 9 -64 15 -116 6 -52 13 -106 15 -120 2 -14 11 -83 20 -155 8 -71 17 -143
20 -160 26 -187 29 -306 10 -465 -2 -14 -3 -33 -4 -43 -1 -14 -9 -17 -46 -15
-41 3 -44 5 -40 28 12 83 15 115 17 205 1 88 -5 176 -17 240 -2 11 -4 33 -4
48 -1 16 -4 26 -8 24 -5 -3 -8 16 -9 41 0 26 -3 70 -7 97 -3 28 -11 93 -17
145 -6 52 -13 103 -15 115 -2 11 -7 47 -10 80 -5 54 -70 588 -80 660 -3 17
-12 86 -20 155 -8 69 -17 139 -20 155 -2 17 -9 77 -16 135 -6 58 -15 109 -20
114 -7 8 -284 9 -1386 5 -232 0 -426 2 -432 6 -6 3 -11 2 -11 -2 0 -10 -53 -9
-69 2 -6 3 -11 2 -11 -2 0 -10 -53 -9 -69 2 -6 3 -11 2 -11 -2 0 -10 -53 -9
-69 2 -6 3 -11 3 -11 -2 0 -9 -683 -8 -706 1 -8 3 -14 2 -14 -2 0 -9 -54 -7
-69 3 -6 3 -11 2 -11 -2 0 -10 -53 -9 -69 2 -6 3 -11 2 -11 -2 0 -10 -53 -9
-69 2 -6 3 -11 2 -11 -4 0 -6 -7 -8 -15 -5 -11 4 -15 -1 -16 -17 0 -13 -2 -33
-4 -44 -4 -18 -19 -137 -30 -230 -3 -21 -9 -75 -15 -120 -6 -44 -13 -96 -15
-115 -3 -19 -14 -109 -26 -200 -11 -91 -23 -183 -25 -205 -9 -80 -45 -361 -49
-385 -2 -14 -7 -50 -10 -80 -3 -30 -7 -66 -10 -80 -6 -36 -23 -185 -30 -255
-3 -33 -8 -71 -12 -85 -4 -14 -7 -112 -7 -219 l-1 -194 -30 -2 c-16 -1 -35 0
-41 2 -26 9 -26 341 1 483 1 8 6 42 9 75 4 33 8 71 11 85 2 14 7 48 10 75 8
69 14 123 21 170 11 80 13 91 19 150 3 33 10 87 15 120 5 33 12 85 15 115 3
30 8 66 10 80 2 14 7 48 10 75 10 92 15 129 35 280 10 83 22 176 25 208 4 32
8 67 10 77 2 11 11 80 20 152 9 73 17 142 19 153 2 17 12 21 72 25 74 5 3134
4 3139 -2z m-1248 -1294 c0 -536 -4 -974 -9 -975 -10 -2 -44 -2 -63 0 -13 1
-15 56 -15 435 0 479 6 437 -60 450 -14 3 -49 12 -77 20 -29 8 -53 12 -53 9 0
-3 -6 0 -14 6 -13 11 -28 10 -86 -4 -14 -4 -36 -9 -50 -12 -14 -2 -32 -7 -40
-10 -8 -4 -21 -5 -27 -4 -7 1 -13 -3 -13 -8 0 -6 -6 -8 -12 -6 -7 3 -43 -3
-81 -14 -48 -13 -69 -15 -74 -7 -12 18 -10 896 2 905 5 5 24 12 40 16 17 5 37
10 45 12 8 3 22 5 30 7 9 1 20 5 26 8 6 4 21 9 35 12 13 2 48 12 78 21 30 9
62 18 70 20 9 2 30 9 46 15 17 7 39 13 50 15 26 5 46 11 65 18 8 4 26 9 40 11
14 3 45 11 70 18 25 8 52 15 61 15 14 1 16 -88 16 -973z m-1429 901 c0 -19 -3
-37 -7 -39 -4 -3 -6 8 -5 22 1 15 3 33 3 40 2 27 9 10 9 -23z m609 -57 c-3 -8
-6 -5 -6 6 -1 11 2 17 5 13 3 -3 4 -12 1 -19z m-602 2 c-3 -5 -12 -10 -18 -10
-7 0 -6 4 3 10 19 12 23 12 15 0z m1 -61 c1 -19 -1 -26 -6 -19 -4 7 -6 20 -5
29 7 32 10 29 11 -10z m611 9 c-3 -8 -6 -5 -6 6 -1 11 2 17 5 13 3 -3 4 -12 1
-19z m-614 -269 c-4 -5 -6 45 -3 109 l5 117 3 -109 c1 -60 -1 -113 -5 -117z
m634 179 c-3 -8 -6 -5 -6 6 -1 11 2 17 5 13 3 -3 4 -12 1 -19z m10 -40 c-3 -8
-6 -5 -6 6 -1 11 2 17 5 13 3 -3 4 -12 1 -19z m1412 -42 c-12 -31 -24 -55 -26
-53 -2 2 6 30 18 61 12 31 24 55 26 53 2 -2 -6 -30 -18 -61z m-50 -130 c-11
-32 -23 -56 -25 -54 -2 2 6 30 18 61 11 32 23 56 25 54 2 -3 -6 -30 -18 -61z
m552 21 c-10 -9 -11 -8 -5 6 3 10 9 15 12 12 3 -3 0 -11 -7 -18z m-57 -92
c-25 -41 -50 -77 -55 -81 -5 -3 7 21 27 53 20 32 43 68 50 81 8 12 17 22 19
22 3 0 -16 -34 -41 -75z m-2487 -14 c0 -11 -5 -18 -9 -15 -4 3 -5 11 -1 19 7
21 12 19 10 -4z m1949 -27 c-8 -21 -15 -34 -15 -28 -1 15 20 76 25 71 2 -2 -2
-21 -10 -43z m-1949 -101 c-2 -21 -4 -6 -4 32 0 39 2 55 4 38 2 -18 2 -50 0
-70z m1914 6 c-11 -24 -20 -41 -20 -37 -1 12 31 89 35 85 3 -2 -4 -24 -15 -48z
m357 -217 c-84 -138 -154 -249 -156 -247 -2 1 66 116 150 253 84 138 154 249
156 248 1 -2 -66 -116 -150 -254z m-2257 151 c13 -16 12 -17 -3 -4 -17 13 -22
21 -14 21 2 0 10 -8 17 -17z m1868 -22 c-6 -18 -13 -30 -15 -28 -2 2 1 18 7
36 6 18 13 30 15 28 2 -2 -1 -18 -7 -36z m-1852 -43 c-3 -8 -6 -5 -6 6 -1 11
2 17 5 13 3 -3 4 -12 1 -19z m0 -50 c-3 -7 -5 -2 -5 12 0 14 2 19 5 13 2 -7 2
-19 0 -25z m1803 -34 c-10 -27 -19 -43 -20 -37 0 16 31 95 36 90 2 -2 -5 -25
-16 -53z m-1793 -41 c-3 -10 -5 -4 -5 12 0 17 2 24 5 18 2 -7 2 -21 0 -30z
m1764 -40 c-12 -20 -14 -14 -5 12 4 9 9 14 11 11 3 -2 0 -13 -6 -23z m-1771
-2 c-5 -11 -15 -23 -21 -27 -6 -3 -3 5 6 20 20 30 30 35 15 7z m1025 -900 c-3
-7 -11 -11 -19 -8 -8 3 -17 3 -20 -1 -4 -3 -21 -7 -39 -8 -17 -1 -61 -5 -97
-9 -36 -4 -78 -8 -95 -10 -122 -13 -155 -16 -194 -20 -24 -2 -46 -7 -49 -9 -2
-3 -12 -1 -21 3 -15 8 -16 47 -16 374 0 201 4 369 8 373 4 4 15 9 25 11 9 1
69 13 132 27 63 14 127 27 143 30 15 2 35 7 45 10 9 3 28 7 42 10 30 6 71 14
119 24 l36 8 3 -396 c1 -217 0 -401 -3 -409z m975 438 c0 -168 3 -219 13 -220
13 -1 20 -2 92 -21 l50 -13 1 -125 c0 -69 -1 -130 -3 -136 -3 -6 -19 -10 -36
-8 -18 1 -38 3 -44 3 -9 1 -13 24 -13 81 0 44 -3 80 -7 81 -5 0 -16 2 -25 4
-16 3 -18 -6 -18 -81 l0 -85 -121 5 c-67 3 -124 8 -127 11 -8 7 -9 673 -2 685
3 4 21 10 40 13 19 3 47 8 61 11 14 3 44 7 67 9 24 3 45 7 49 10 18 19 23 -25
23 -224z m-1830 206 c8 -2 37 -7 64 -10 28 -3 51 -7 53 -9 3 -3 6 -516 4 -653
-1 -48 -18 -59 -23 -16 -3 24 -8 28 -33 28 -25 0 -29 -4 -27 -20 2 -11 9 -23
15 -27 7 -4 -17 -8 -53 -9 -36 0 -80 -1 -98 -2 -36 -2 -36 0 -32 99 1 37 -2
53 -13 57 -30 11 -40 -9 -39 -82 l1 -70 -32 -5 c-71 -11 -68 -17 -65 128 l3
131 78 20 c56 14 77 24 76 35 -1 8 -1 106 0 218 l1 203 53 -6 c28 -3 59 -8 67
-10z m215 -207 c0 -115 -2 -211 -5 -213 -3 -2 -5 95 -5 215 0 120 2 216 5 213
3 -2 5 -99 5 -215z m-2 -253 c-7 -21 -12 -19 -10 4 0 11 5 18 9 15 4 -3 5 -11
1 -19z"/>
<path d="M2723 4063 c-10 -4 -13 -108 -13 -474 0 -462 0 -469 20 -469 11 0 23
-1 27 -2 5 -2 8 867 4 940 -1 12 -16 14 -38 5z"/>
<path d="M2627 4037 c-16 -11 -17 -50 -15 -452 2 -242 6 -438 9 -435 3 3 13
-1 22 -9 21 -17 19 -64 21 457 1 303 -2 436 -10 443 -6 5 -17 4 -27 -4z"/>
<path d="M2518 3998 c-15 -12 -17 -54 -15 -422 l2 -409 33 -2 32 -3 0 424 c0
402 -1 424 -18 424 -10 0 -26 -6 -34 -12z"/>
<path d="M2414 3972 c-9 -5 -12 -119 -12 -414 l0 -408 22 5 c11 2 24 4 27 4 3
1 6 186 6 411 1 373 -1 410 -16 410 -9 0 -21 -4 -27 -8z"/>
<path d="M2307 3943 c-16 -4 -17 -30 -15 -411 l3 -407 23 -1 c12 -1 23 4 23
10 1 6 2 192 3 414 1 265 -2 402 -9 401 -5 -1 -18 -3 -28 -6z"/>
<path d="M2208 3913 c-16 -4 -18 -34 -18 -408 0 -223 4 -407 9 -410 5 -3 19
-1 31 3 l22 8 -1 395 c0 216 -1 400 -1 407 0 12 -10 13 -42 5z"/>
<path d="M2395 2992 c-18 -12 -14 -62 4 -62 22 0 36 12 35 30 -1 8 -2 21 -3
28 -1 13 -20 16 -36 4z"/>
<path d="M2310 2976 c-17 -7 -26 -21 -28 -40 -4 -27 -2 -28 25 -21 36 9 35 8
31 42 -3 28 -5 29 -28 19z"/>
<path d="M2170 2919 c0 -26 21 -45 35 -31 4 4 12 7 18 7 7 0 13 12 15 27 3 26
1 27 -32 26 -32 -1 -36 -4 -36 -29z"/>
<path d="M2077 2923 c-4 -3 -7 -20 -7 -36 0 -22 4 -28 16 -23 9 3 22 6 30 6 9
0 14 11 14 30 0 25 -4 30 -23 30 -13 0 -27 -3 -30 -7z"/>
<path d="M1983 2903 c-13 -5 -18 -45 -8 -55 3 -3 17 -3 30 0 20 3 25 10 25 33
0 29 -15 36 -47 22z"/>
<path d="M2415 2891 c-11 -5 -23 -7 -26 -5 -4 2 -5 -45 0 -68 1 -8 41 2 42 11
1 6 5 72 4 70 0 0 -9 -4 -20 -8z"/>
<path d="M2310 2871 c-21 -6 -25 -13 -25 -41 0 -26 4 -34 15 -31 8 2 21 4 28
4 7 0 12 15 12 39 0 21 -1 38 -2 37 -2 -1 -14 -4 -28 -8z"/>
<path d="M2193 2840 c-17 -7 -23 -18 -23 -41 0 -24 3 -30 16 -25 9 3 24 6 35
6 16 0 19 6 17 35 -2 36 -8 40 -45 25z"/>
<path d="M2088 2822 c-13 -2 -18 -13 -18 -39 0 -32 2 -35 23 -29 12 3 25 6 30
6 4 0 7 15 7 33 0 33 -5 37 -42 29z"/>
<path d="M1993 2802 c-18 -3 -22 -9 -21 -38 1 -37 2 -37 36 -28 16 5 22 14 22
35 0 32 -6 37 -37 31z"/>
<path d="M2389 2770 c-1 -6 -1 -21 -1 -35 0 -41 1 -43 22 -38 21 6 22 7 24 50
1 20 -4 27 -21 29 -13 2 -24 -1 -24 -6z"/>
<path d="M2296 2748 c-21 -12 -19 -81 2 -73 7 3 20 5 28 5 10 0 14 12 14 38 0
40 -12 48 -44 30z"/>
<path d="M2188 2732 c-13 -2 -18 -13 -18 -36 0 -40 4 -44 36 -38 29 5 39 22
30 55 -5 23 -14 27 -48 19z"/>
<path d="M2083 2703 c-18 -7 -17 -73 1 -73 33 0 46 13 46 46 0 34 -13 41 -47
27z"/>
<path d="M1977 2683 c-4 -3 -7 -21 -7 -38 0 -32 4 -34 53 -26 4 0 7 17 7 36 0
30 -3 35 -23 35 -13 0 -27 -3 -30 -7z"/>
<path d="M2415 2661 c-3 -6 -11 -9 -16 -6 -10 7 -10 5 -13 -40 -1 -20 4 -30
14 -31 26 -1 38 15 35 47 -3 34 -10 45 -20 30z"/>
<path d="M2292 2628 c-12 -12 -16 -50 -7 -60 11 -11 53 5 57 20 11 44 -21 69
-50 40z"/>
<path d="M2192 2609 c-16 -6 -22 -17 -22 -39 0 -27 2 -30 32 -27 30 2 33 6 35
38 3 38 -5 43 -45 28z"/>
<path d="M2098 2592 c-25 -3 -28 -8 -28 -39 0 -33 1 -35 27 -28 35 9 35 8 31
42 -3 24 -7 28 -30 25z"/>
<path d="M1977 2563 c-4 -3 -7 -19 -7 -35 0 -26 3 -29 28 -26 22 2 28 8 30 36
3 28 0 32 -21 32 -13 0 -27 -3 -30 -7z"/>
<path d="M2404 2542 c-16 -10 -25 -45 -15 -61 6 -10 13 -10 28 -2 18 9 21 23
14 64 -1 9 -13 9 -27 -1z"/>
<path d="M2298 2520 c-10 -6 -16 -22 -16 -40 1 -25 4 -29 29 -27 26 2 29 5 29
40 0 38 -10 45 -42 27z"/>
<path d="M2198 2498 c-23 -8 -28 -16 -28 -43 0 -31 1 -32 33 -26 28 6 32 11
33 39 1 39 -3 42 -38 30z"/>
<path d="M2088 2479 c-24 -14 -26 -84 -2 -75 9 3 22 6 30 6 9 0 14 12 14 36 0
19 -4 33 -9 30 -5 -4 -11 -2 -13 3 -2 6 -10 6 -20 0z"/>
<path d="M1992 2453 c-19 -4 -23 -10 -20 -36 3 -33 21 -42 46 -24 13 10 17 68
5 66 -5 -1 -18 -4 -31 -6z"/>
<path d="M2389 2423 c-9 -55 -2 -69 29 -59 12 4 18 16 18 36 0 25 -4 30 -23
30 -13 0 -24 -3 -24 -7z"/>
<path d="M2309 2408 c-20 -7 -26 -16 -27 -38 -1 -26 3 -30 28 -30 23 0 28 5
32 30 6 40 -2 49 -33 38z"/>
<path d="M2174 2363 c-11 -41 7 -58 46 -43 3 1 9 2 13 1 4 -1 7 15 5 34 -2 32
-5 35 -30 33 -21 -2 -30 -9 -34 -25z"/>
<path d="M2088 2362 c-13 -2 -18 -13 -18 -38 0 -30 3 -33 23 -30 12 3 25 5 30
5 4 1 7 16 7 34 0 33 -5 37 -42 29z"/>
<path d="M1983 2334 c-13 -13 -17 -46 -8 -56 3 -3 16 -3 30 0 20 3 24 10 23
36 -1 35 -23 45 -45 20z"/>
<path d="M3360 2830 c-18 -4 -26 -14 -28 -33 -3 -26 -1 -27 25 -23 15 2 31 5
36 5 9 1 9 33 -1 47 -4 6 -18 8 -32 4z"/>
<path d="M3241 2805 c-4 -5 -6 -16 -5 -22 1 -7 2 -17 3 -23 1 -6 10 -6 25 0
13 5 27 6 30 3 3 -4 6 8 6 25 0 28 -3 32 -26 30 -14 -2 -29 -7 -33 -13z"/>
<path d="M3337 2734 c-4 -4 -7 -16 -7 -26 0 -16 6 -19 33 -16 24 2 32 8 32 23
0 14 -8 21 -25 23 -14 2 -29 0 -33 -4z"/>
<path d="M3237 2717 c-3 -8 -2 -18 1 -24 10 -14 42 -24 42 -12 0 6 5 7 10 4 6
-4 10 5 10 19 0 22 -5 26 -29 26 -16 0 -31 -6 -34 -13z"/>
<path d="M3335 2652 c-3 -3 -5 -14 -5 -24 0 -16 6 -19 33 -16 24 2 32 8 32 23
0 15 -7 20 -27 21 -15 1 -30 -1 -33 -4z"/>
<path d="M3239 2638 c-5 -30 -1 -43 11 -40 8 2 23 4 32 5 12 1 18 9 18 24 0
20 -5 23 -30 21 -16 -1 -31 -6 -31 -10z"/>
<path d="M3332 2555 c-2 -24 1 -26 31 -23 24 2 32 8 32 23 0 15 -8 21 -30 23
-27 3 -31 -1 -33 -23z"/>
<path d="M3243 2558 c-14 -19 -9 -43 7 -40 8 2 23 4 32 5 12 1 18 9 18 24 0
18 -6 23 -24 23 -13 0 -28 -6 -33 -12z"/>
<path d="M3336 2491 c-1 -3 -2 -15 -2 -26 1 -14 7 -19 21 -17 37 5 45 11 45
31 0 15 -7 19 -30 19 -17 -1 -32 -4 -34 -7z"/>
<path d="M3239 2483 c0 -5 -2 -16 -4 -26 -2 -13 1 -17 11 -13 8 3 14 0 14 -6
0 -7 4 -7 13 1 8 6 17 8 20 4 4 -3 7 6 7 20 0 23 -4 27 -30 27 -16 0 -30 -3
-31 -7z"/>
<path d="M3343 2414 c-7 -3 -13 -14 -13 -25 0 -16 6 -19 35 -17 30 2 35 6 33
23 -3 20 -30 29 -55 19z"/>
<path d="M3239 2398 c-6 -34 -2 -43 16 -40 37 5 45 11 45 32 0 16 -6 20 -30
18 -16 -1 -31 -6 -31 -10z"/>
<path d="M3275 2333 c-11 -3 -25 -9 -32 -15 -15 -12 -9 -44 8 -40 8 2 22 4 31
5 13 1 18 10 18 29 0 15 -1 27 -2 27 -2 -1 -12 -4 -23 -6z"/>
<path d="M3334 2331 c-2 -2 -4 -13 -4 -23 0 -30 64 -21 68 9 3 19 -1 22 -28
20 -17 -1 -33 -4 -36 -6z"/>
<path d="M3337 2254 c-4 -4 -7 -16 -7 -26 0 -15 7 -18 35 -16 30 2 35 6 33 23
-3 20 -46 34 -61 19z"/>
<path d="M3250 2240 c-32 -20 -7 -53 32 -42 24 6 24 52 1 52 -10 0 -25 -5 -33
-10z"/>
<path d="M1567 2810 c-3 -13 1 -24 13 -30 34 -18 50 -12 50 20 0 26 -3 30 -29
30 -20 0 -30 -6 -34 -20z"/>
<path d="M1666 2812 c-8 -13 5 -53 14 -47 5 3 11 1 15 -4 10 -18 35 0 35 25 0
13 -3 24 -7 25 -5 0 -18 2 -30 5 -12 2 -24 0 -27 -4z"/>
<path d="M1567 2733 c-3 -4 0 -19 5 -33 6 -14 12 -20 15 -13 3 10 10 10 25 2
17 -9 19 -8 16 18 -2 22 -9 29 -30 31 -14 2 -28 0 -31 -5z"/>
<path d="M1670 2735 c-1 -5 -3 -17 -5 -26 -2 -11 8 -20 31 -27 33 -10 34 -10
34 20 0 27 -3 30 -25 26 -13 -3 -26 0 -29 6 -2 6 -5 7 -6 1z"/>
<path d="M1570 2635 c0 -21 5 -25 30 -25 25 0 30 4 30 25 0 21 -5 25 -30 25
-25 0 -30 -4 -30 -25z"/>
<path d="M1666 2634 c-8 -21 2 -31 34 -36 21 -2 25 1 25 21 0 19 -6 25 -26 28
-18 2 -29 -2 -33 -13z"/>
<path d="M1570 2556 c0 -19 6 -25 29 -28 24 -4 30 0 34 18 4 24 -9 34 -44 34
-13 0 -19 -7 -19 -24z"/>
<path d="M1667 2563 c-10 -18 11 -46 37 -49 24 -2 27 0 24 23 -2 20 -10 27
-30 30 -14 2 -29 0 -31 -4z"/>
<path d="M1567 2479 c-5 -20 1 -25 38 -31 15 -2 21 3 23 25 3 24 0 27 -26 27
-22 0 -31 -6 -35 -21z"/>
<path d="M1669 2488 c-11 -38 -7 -44 34 -52 23 -4 27 -1 27 19 0 22 -17 35
-46 35 -8 0 -14 -1 -15 -2z"/>
<path d="M1567 2399 c-5 -20 1 -25 38 -31 15 -2 21 3 23 25 3 24 0 27 -26 27
-22 0 -31 -6 -35 -21z"/>
<path d="M1667 2403 c-10 -18 11 -46 37 -49 24 -2 27 0 24 23 -2 20 -10 27
-30 30 -14 2 -29 0 -31 -4z"/>
<path d="M1567 2319 c-5 -20 1 -25 38 -31 15 -2 21 3 23 25 3 24 0 27 -26 27
-22 0 -31 -6 -35 -21z"/>
<path d="M1669 2328 c-11 -37 -8 -42 34 -52 24 -6 27 -4 27 18 0 23 -16 36
-46 36 -8 0 -14 -1 -15 -2z"/>
<path d="M1567 2239 c-5 -20 1 -25 38 -31 15 -2 21 3 23 25 3 24 0 27 -26 27
-22 0 -31 -6 -35 -21z"/>
<path d="M4686 2092 c-2 -4 4 -8 14 -8 10 0 16 4 14 8 -3 4 -9 8 -14 8 -5 0
-11 -4 -14 -8z"/>
<path d="M749 1871 c-18 -9 -42 -29 -53 -44 -19 -26 -21 -44 -24 -210 -3 -205
5 -254 48 -285 40 -30 134 -49 146 -30 3 4 13 8 22 8 25 1 61 34 77 73 19 45
19 377 0 423 -11 26 -74 85 -82 76 -2 -1 -4 -1 -5 -1 -17 9 -104 2 -129 -10z
m107 -85 c11 -12 14 -52 14 -193 0 -98 -4 -184 -8 -190 -12 -20 -56 -22 -69
-4 -17 22 -18 372 -1 389 16 16 46 15 64 -2z"/>
<path d="M1903 1882 c-6 -4 -34 -7 -62 -6 l-51 1 0 -283 c0 -263 1 -284 18
-285 67 -3 219 -4 230 -1 7 2 12 21 12 43 0 43 5 42 -97 39 l-63 -1 0 90 c0
66 3 91 13 92 6 0 30 1 53 1 l40 0 0 42 -1 41 -45 2 c-25 0 -48 2 -52 2 -5 1
-8 30 -8 65 0 50 4 65 17 70 9 4 21 1 27 -5 7 -8 7 -10 1 -6 -12 6 -42 -9 -34
-17 9 -9 77 -13 90 -6 17 11 2 29 -21 25 -11 -2 -20 0 -20 4 0 5 19 8 43 7 40
-1 42 0 43 29 2 49 -4 55 -53 52 -24 -2 -47 1 -49 5 -6 10 -16 10 -31 0z"/>
<path d="M2225 1875 c-48 -17 -85 -59 -85 -97 0 -16 -4 -28 -9 -28 -5 0 -8 12
-5 28 l4 27 -15 -25 c-17 -30 -19 -117 -2 -147 16 -29 115 -133 126 -133 5 0
19 -22 32 -50 27 -56 36 -61 45 -25 8 31 -5 52 -91 140 -36 39 -72 81 -79 95
-20 37 -28 80 -16 80 5 0 9 -3 8 -7 -8 -32 22 -81 97 -160 90 -94 112 -140 83
-170 -39 -38 -77 -14 -78 49 l0 37 -52 -2 -53 -2 2 -48 c4 -96 62 -144 164
-134 63 5 92 21 120 64 40 60 19 128 -74 235 -40 45 -81 94 -90 108 -23 33
-22 67 3 80 14 7 20 7 20 0 0 -5 -4 -10 -9 -10 -5 0 -12 -7 -15 -16 -3 -8 -2
-12 3 -9 12 7 22 -10 30 -49 6 -27 10 -30 46 -29 62 1 65 2 59 17 -3 9 -18 13
-40 11 -30 -2 -34 1 -34 22 0 36 0 37 -17 56 -9 9 -11 17 -5 17 14 0 24 -16
31 -54 6 -29 10 -31 51 -31 53 0 60 7 53 54 -15 94 -107 140 -208 106z"/>
<path d="M2558 1872 c-6 -30 -2 -551 5 -558 4 -4 41 -8 82 -8 41 0 75 -3 75
-6 0 -4 -38 -7 -85 -6 -70 0 -85 3 -86 15 -1 9 -3 133 -4 276 -3 296 -2 285
-15 265 -6 -9 -10 -133 -10 -300 l0 -285 72 2 c135 3 149 5 142 25 -4 13 0 18
12 18 9 0 31 9 49 20 85 52 90 205 10 268 -21 16 -23 22 -12 29 23 13 47 69
47 108 0 62 -49 137 -82 127 -5 -1 -8 2 -8 6 0 4 -38 8 -83 8 -46 1 -89 4 -94
7 -6 4 -12 -1 -15 -11z m179 -95 c2 -3 6 -20 9 -38 7 -43 -11 -68 -53 -73
l-33 -3 0 62 c0 34 3 64 6 67 5 6 62 -7 71 -15z m-11 -215 c36 -24 47 -118 16
-145 -10 -9 -33 -20 -50 -23 l-32 -6 0 91 0 91 28 0 c15 0 32 -4 38 -8z"/>
<path d="M2670 1767 c0 -7 9 -18 20 -25 11 -7 20 -23 20 -37 0 -32 16 -32 24
-1 10 39 -9 76 -39 76 -14 0 -25 -6 -25 -13z"/>
<path d="M2675 1551 c-3 -5 6 -22 20 -37 14 -15 25 -39 25 -55 0 -15 4 -30 9
-33 13 -9 24 48 16 84 -9 39 -54 65 -70 41z"/>
<path d="M3270 1883 c0 -4 -19 -8 -42 -8 l-43 0 -30 -122 c-16 -68 -32 -123
-35 -123 -3 0 -19 55 -36 122 l-30 122 -53 3 c-39 2 -52 0 -48 -10 2 -6 29
-82 58 -167 50 -145 54 -162 59 -275 4 -89 8 -119 18 -117 6 1 12 -2 12 -8 0
-5 -9 -10 -20 -10 -21 0 -24 22 -21 166 2 84 -96 377 -127 382 -19 3 -16 -10
36 -160 53 -155 56 -169 62 -288 l5 -124 30 1 c59 1 65 3 65 19 0 8 -4 12 -10
9 -5 -3 -10 -1 -10 5 0 6 6 10 13 9 46 -6 47 -5 47 110 0 103 2 115 46 242 68
196 74 218 63 224 -5 4 -9 3 -9 -2z"/>
<path d="M3470 1872 c-70 -27 -75 -43 -78 -269 -3 -219 2 -245 52 -278 61 -40
169 -31 213 18 31 34 40 74 39 182 l-1 100 -65 1 c-36 0 -71 -1 -78 -4 -14 -5
-13 -60 1 -79 7 -9 5 -13 -7 -13 -11 0 -16 9 -16 30 0 17 -4 30 -10 30 -5 0
-10 -20 -10 -45 0 -41 2 -45 25 -45 26 0 27 -2 27 -68 1 -26 3 -30 14 -21 16
13 20 124 4 114 -5 -3 -10 -1 -10 4 0 6 7 11 15 11 19 0 21 -108 3 -132 -23
-30 -71 -27 -84 5 -15 35 -10 353 6 372 28 34 80 5 80 -45 0 -28 1 -28 53 -27
l52 2 -2 43 c0 23 -8 54 -17 67 -35 54 -132 76 -206 47z"/>
<path d="M3895 1874 c-20 -7 -38 -14 -39 -16 -1 -1 -12 -16 -24 -32 -21 -27
-22 -38 -22 -231 0 -193 1 -204 23 -236 16 -24 36 -38 70 -49 26 -8 47 -18 47
-22 0 -16 -76 12 -105 39 -42 39 -45 55 -46 265 -1 180 -2 200 -14 173 -10
-22 -14 -80 -15 -213 0 -236 11 -263 115 -288 48 -12 101 -3 124 22 11 13 12
15 1 7 -8 -6 -24 -7 -35 -3 -15 5 -10 8 22 13 52 9 96 45 110 91 6 19 10 79 9
133 l-1 98 -65 1 c-86 1 -90 -1 -87 -47 2 -35 5 -39 30 -39 26 0 27 -1 27 -58
0 -33 -6 -66 -13 -76 -15 -20 -62 -25 -79 -8 -11 11 -18 324 -9 365 4 20 41
44 41 27 0 -5 -8 -10 -17 -10 -14 0 -14 -3 4 -22 12 -13 23 -36 25 -53 3 -29
5 -30 52 -30 32 0 51 5 54 13 3 9 -7 12 -35 10 -37 -3 -38 -2 -41 32 -2 19
-11 43 -19 53 -10 10 -11 17 -5 17 15 0 32 -33 32 -64 0 -23 3 -25 55 -25 l55
0 -5 44 c-2 25 -12 56 -21 70 -35 54 -123 75 -199 49z"/>
<path d="M1100 1594 l0 -284 23 -1 c79 -4 194 -4 205 -1 7 2 12 21 12 43 l0
39 -65 0 c-45 0 -65 4 -66 13 0 6 -1 116 -1 243 l-1 231 -53 1 -54 0 0 -284z"/>
<path d="M1443 1595 c-1 -159 3 -285 8 -285 5 0 9 -4 9 -10 0 -5 -7 -10 -15
-10 -13 0 -15 37 -15 275 0 155 -4 275 -9 275 -5 0 -11 -6 -13 -12 -3 -11 -2
-500 1 -548 1 -13 20 -15 114 -15 61 0 115 4 119 10 12 17 -10 21 -92 19 -44
-2 -80 1 -80 5 0 4 45 8 100 7 54 0 101 2 104 5 2 2 6 20 8 39 l3 35 -67 3
-68 3 -2 242 -3 242 -51 2 -51 3 0 -285z"/>
<path d="M1063 1551 l2 -285 114 0 c80 0 116 4 119 12 4 13 -5 14 -130 15
l-78 1 0 271 c0 226 -2 272 -14 272 -12 0 -14 -47 -13 -286z"/>
<path d="M1752 1554 l3 -289 123 1 c67 1 126 4 129 8 16 16 -22 22 -116 21
-55 -1 -103 1 -108 4 -4 3 -8 125 -8 270 0 204 -3 265 -13 269 -10 3 -12 -56
-10 -284z"/>
<path d="M3136 1786 c-24 -82 -30 -116 -19 -116 10 0 49 158 40 166 -3 3 -12
-19 -21 -50z"/>
<path d="M3365 1780 c-16 -24 -19 -396 -4 -434 11 -27 54 -74 69 -77 3 0 14
-2 25 -4 58 -11 97 -8 120 9 17 12 13 13 -34 14 -62 2 -108 22 -136 60 -18 24
-20 47 -25 237 -3 145 -8 205 -15 195z"/>
<path d="M3517 1777 c-3 -7 3 -19 13 -25 11 -6 20 -26 22 -44 3 -33 4 -33 56
-35 37 -1 52 2 49 10 -2 7 -20 12 -40 12 -36 0 -37 1 -37 36 0 19 -5 40 -12
47 -16 16 -45 15 -51 -1z"/>
<path d="M3930 1545 c0 -41 2 -45 25 -45 26 0 29 -7 26 -69 -2 -30 0 -33 14
-21 10 8 15 30 15 67 0 46 -3 54 -17 52 -36 -3 -43 2 -43 31 0 17 -4 30 -10
30 -5 0 -10 -20 -10 -45z"/>
<path d="M1902 1549 c2 -7 17 -14 31 -14 36 -2 29 19 -7 23 -20 3 -27 0 -24
-9z"/>
<path d="M2100 1402 c0 -59 31 -112 75 -127 17 -5 32 -12 35 -15 8 -8 50 -7
50 1 0 4 8 6 18 4 9 -1 31 3 47 10 29 13 29 14 -25 13 -30 -1 -66 3 -80 7 -34
10 -90 72 -91 101 -3 43 -4 47 -16 52 -9 2 -13 -11 -13 -46z"/>
<path d="M140 1120 c0 -4 15 -7 33 -8 17 0 55 -3 82 -6 58 -6 173 -16 230 -21
22 -2 40 -4 40 -5 0 -1 29 -3 65 -6 75 -5 145 -11 145 -13 0 -1 52 -4 115 -7
233 -10 195 3 312 -115 100 -100 195 -187 241 -218 12 -8 24 -18 27 -21 3 -3
30 -23 60 -45 30 -22 61 -45 68 -52 6 -6 21 -15 32 -18 11 -3 20 -11 20 -16 0
-5 3 -8 8 -7 4 1 26 -10 49 -25 24 -15 47 -27 52 -27 5 0 11 -4 13 -9 11 -30
522 -265 559 -257 3 0 13 -5 22 -13 10 -7 17 -11 17 -7 0 3 15 0 33 -7 17 -8
66 -15 107 -16 67 -2 90 4 220 50 80 28 150 52 155 53 40 11 336 155 353 173
7 7 18 13 23 13 19 0 263 166 364 247 95 76 235 209 300 284 23 26 39 34 65
36 19 0 64 4 100 8 36 3 92 8 125 11 81 6 138 11 215 18 36 3 89 8 118 11 30
3 58 7 63 11 5 3 9 0 9 -6 0 -6 4 -8 10 -5 6 3 10 10 10 14 0 4 -1003 8 -2230
8 -1227 0 -2230 -3 -2230 -7z m3650 -81 c0 -9 -82 -91 -165 -164 -37 -33 -73
-65 -79 -70 -6 -6 -36 -28 -66 -50 -30 -22 -57 -42 -60 -45 -8 -9 -199 -133
-251 -163 -79 -45 -265 -136 -293 -143 -14 -3 -26 -9 -26 -13 0 -4 -21 -13
-47 -21 -51 -14 -50 -14 -73 -22 -58 -22 -168 -60 -180 -63 -8 -2 -27 -8 -41
-13 -20 -8 -41 -7 -80 4 -68 19 -71 20 -89 27 -8 3 -42 15 -75 26 -33 12 -70
26 -82 31 -13 6 -33 14 -45 19 -62 24 -344 165 -356 177 -7 8 -20 14 -28 14
-8 0 -14 5 -14 10 0 6 -5 10 -11 10 -27 0 -292 192 -408 296 -59 53 -151 143
-148 145 1 1 36 2 77 3 78 1 87 -3 154 -69 17 -17 116 -97 184 -150 7 -5 19
-16 27 -22 7 -7 18 -13 24 -13 6 0 11 -4 11 -8 0 -5 16 -17 35 -28 19 -10 35
-22 35 -26 0 -5 4 -8 10 -8 5 0 40 -19 77 -42 94 -59 100 -62 173 -100 36 -18
68 -37 71 -41 3 -5 9 -9 12 -8 18 1 67 -22 67 -32 0 -6 3 -8 6 -5 3 4 33 -7
67 -22 80 -37 139 -62 152 -65 6 -1 30 -9 55 -18 25 -8 54 -16 65 -18 18 -2
90 14 125 28 20 8 20 8 55 18 17 4 35 11 40 15 6 4 26 13 45 20 19 7 68 28
108 46 41 19 77 34 82 34 4 0 13 7 20 15 7 9 15 14 17 11 11 -11 372 204 452
270 9 7 43 35 76 61 32 26 88 75 122 108 61 58 65 60 118 60 30 0 55 -3 55 -6z"/>
<path d="M4615 1120 c4 -6 11 -8 16 -5 14 9 11 15 -7 15 -8 0 -12 -5 -9 -10z"/>
<path d="M4650 1119 c0 -5 5 -7 10 -4 6 3 10 8 10 11 0 2 -4 4 -10 4 -5 0 -10
-5 -10 -11z"/>
</g>
</svg>
